<svg xmlns="http://www.w3.org/2000/svg" xml:space="preserve" width="24" height="24" version="1.1" style="shape-rendering:geometricPrecision; text-rendering:geometricPrecision; image-rendering:optimizeQuality; fill-rule:evenodd; clip-rule:evenodd"
viewBox="0 0 24 24"
 xmlns:xlink="http://www.w3.org/1999/xlink">
 <defs>
  <style type="text/css">
   <![CDATA[
    .fil0 {fill:black}
   ]]>
  </style>
 </defs>
 <g id="Layer_x0020_1">
  <metadata id="CorelCorpID_0Corel-Layer"/>
  <path class="fil0" d="M187 436c-103,0 -187,-83 -187,-186 0,-103 84,-186 187,-186 102,0 186,83 186,186 0,103 -84,186 -186,186zm0 -47c76,0 139,-62 139,-139 0,-77 -63,-139 -139,-139 -3,0 -5,2 -5,5 0,2 2,4 5,4 71,0 129,59 129,130 0,72 -58,130 -129,130 -3,0 -5,2 -5,5 0,2 2,4 5,4zm0 -43c53,0 96,-43 96,-96 0,-53 -43,-96 -96,-96 -53,0 -97,43 -97,96 0,53 44,96 97,96z"/>
  <path class="fil0" d="M503 448c-1,0 -2,0 -3,0 -131,-46 -144,-166 -145,-202 0,-5 4,-9 9,-9 0,0 0,0 0,0 5,0 9,4 9,9 1,42 15,145 133,185 4,2 7,7 5,11 -1,4 -4,6 -8,6z"/>
 </g>
</svg>